<mxfile host="65bd71144e" pages="2">
    <diagram id="I2zQirCNEPbkmR6fE7Ot" name="Class">
        <mxGraphModel dx="967" dy="859" grid="1" gridSize="10" guides="1" tooltips="1" connect="1" arrows="1" fold="1" page="1" pageScale="1" pageWidth="827" pageHeight="1169" math="0" shadow="0">
            <root>
                <mxCell id="0"/>
                <mxCell id="1" parent="0"/>
                <mxCell id="ATjMgSl7CKRhAM330nxS-5" value="Runner" style="swimlane;fontStyle=1;align=center;verticalAlign=top;childLayout=stackLayout;horizontal=1;startSize=26;horizontalStack=0;resizeParent=1;resizeParentMax=0;resizeLast=0;collapsible=1;marginBottom=0;" parent="1" vertex="1">
                    <mxGeometry x="70" y="400" width="160" height="86" as="geometry"/>
                </mxCell>
                <mxCell id="ATjMgSl7CKRhAM330nxS-6" value="+ field: type" style="text;strokeColor=none;fillColor=none;align=left;verticalAlign=top;spacingLeft=4;spacingRight=4;overflow=hidden;rotatable=0;points=[[0,0.5],[1,0.5]];portConstraint=eastwest;" parent="ATjMgSl7CKRhAM330nxS-5" vertex="1">
                    <mxGeometry y="26" width="160" height="26" as="geometry"/>
                </mxCell>
                <mxCell id="ATjMgSl7CKRhAM330nxS-7" value="" style="line;strokeWidth=1;fillColor=none;align=left;verticalAlign=middle;spacingTop=-1;spacingLeft=3;spacingRight=3;rotatable=0;labelPosition=right;points=[];portConstraint=eastwest;" parent="ATjMgSl7CKRhAM330nxS-5" vertex="1">
                    <mxGeometry y="52" width="160" height="8" as="geometry"/>
                </mxCell>
                <mxCell id="ATjMgSl7CKRhAM330nxS-8" value="+ method(type): type" style="text;strokeColor=none;fillColor=none;align=left;verticalAlign=top;spacingLeft=4;spacingRight=4;overflow=hidden;rotatable=0;points=[[0,0.5],[1,0.5]];portConstraint=eastwest;" parent="ATjMgSl7CKRhAM330nxS-5" vertex="1">
                    <mxGeometry y="60" width="160" height="26" as="geometry"/>
                </mxCell>
                <mxCell id="ATjMgSl7CKRhAM330nxS-13" value="ThreadPool" style="swimlane;fontStyle=1;align=center;verticalAlign=top;childLayout=stackLayout;horizontal=1;startSize=26;horizontalStack=0;resizeParent=1;resizeParentMax=0;resizeLast=0;collapsible=1;marginBottom=0;" parent="1" vertex="1">
                    <mxGeometry x="180" y="214" width="160" height="86" as="geometry"/>
                </mxCell>
                <mxCell id="ATjMgSl7CKRhAM330nxS-14" value="+ field: type" style="text;strokeColor=none;fillColor=none;align=left;verticalAlign=top;spacingLeft=4;spacingRight=4;overflow=hidden;rotatable=0;points=[[0,0.5],[1,0.5]];portConstraint=eastwest;" parent="ATjMgSl7CKRhAM330nxS-13" vertex="1">
                    <mxGeometry y="26" width="160" height="26" as="geometry"/>
                </mxCell>
                <mxCell id="ATjMgSl7CKRhAM330nxS-15" value="" style="line;strokeWidth=1;fillColor=none;align=left;verticalAlign=middle;spacingTop=-1;spacingLeft=3;spacingRight=3;rotatable=0;labelPosition=right;points=[];portConstraint=eastwest;" parent="ATjMgSl7CKRhAM330nxS-13" vertex="1">
                    <mxGeometry y="52" width="160" height="8" as="geometry"/>
                </mxCell>
                <mxCell id="ATjMgSl7CKRhAM330nxS-16" value="+ method(type): type" style="text;strokeColor=none;fillColor=none;align=left;verticalAlign=top;spacingLeft=4;spacingRight=4;overflow=hidden;rotatable=0;points=[[0,0.5],[1,0.5]];portConstraint=eastwest;" parent="ATjMgSl7CKRhAM330nxS-13" vertex="1">
                    <mxGeometry y="60" width="160" height="26" as="geometry"/>
                </mxCell>
                <mxCell id="ATjMgSl7CKRhAM330nxS-17" value="TaskManager" style="swimlane;fontStyle=1;align=center;verticalAlign=top;childLayout=stackLayout;horizontal=1;startSize=26;horizontalStack=0;resizeParent=1;resizeParentMax=0;resizeLast=0;collapsible=1;marginBottom=0;" parent="1" vertex="1">
                    <mxGeometry x="280" y="486" width="160" height="86" as="geometry"/>
                </mxCell>
                <mxCell id="ATjMgSl7CKRhAM330nxS-18" value="+ field: type" style="text;strokeColor=none;fillColor=none;align=left;verticalAlign=top;spacingLeft=4;spacingRight=4;overflow=hidden;rotatable=0;points=[[0,0.5],[1,0.5]];portConstraint=eastwest;" parent="ATjMgSl7CKRhAM330nxS-17" vertex="1">
                    <mxGeometry y="26" width="160" height="26" as="geometry"/>
                </mxCell>
                <mxCell id="ATjMgSl7CKRhAM330nxS-19" value="" style="line;strokeWidth=1;fillColor=none;align=left;verticalAlign=middle;spacingTop=-1;spacingLeft=3;spacingRight=3;rotatable=0;labelPosition=right;points=[];portConstraint=eastwest;" parent="ATjMgSl7CKRhAM330nxS-17" vertex="1">
                    <mxGeometry y="52" width="160" height="8" as="geometry"/>
                </mxCell>
                <mxCell id="ATjMgSl7CKRhAM330nxS-20" value="+ method(type): type" style="text;strokeColor=none;fillColor=none;align=left;verticalAlign=top;spacingLeft=4;spacingRight=4;overflow=hidden;rotatable=0;points=[[0,0.5],[1,0.5]];portConstraint=eastwest;" parent="ATjMgSl7CKRhAM330nxS-17" vertex="1">
                    <mxGeometry y="60" width="160" height="26" as="geometry"/>
                </mxCell>
                <mxCell id="ATjMgSl7CKRhAM330nxS-21" value="Thread" style="swimlane;fontStyle=1;align=center;verticalAlign=top;childLayout=stackLayout;horizontal=1;startSize=26;horizontalStack=0;resizeParent=1;resizeParentMax=0;resizeLast=0;collapsible=1;marginBottom=0;" parent="1" vertex="1">
                    <mxGeometry x="330" y="670" width="160" height="86" as="geometry"/>
                </mxCell>
                <mxCell id="ATjMgSl7CKRhAM330nxS-22" value="+ field: type" style="text;strokeColor=none;fillColor=none;align=left;verticalAlign=top;spacingLeft=4;spacingRight=4;overflow=hidden;rotatable=0;points=[[0,0.5],[1,0.5]];portConstraint=eastwest;" parent="ATjMgSl7CKRhAM330nxS-21" vertex="1">
                    <mxGeometry y="26" width="160" height="26" as="geometry"/>
                </mxCell>
                <mxCell id="ATjMgSl7CKRhAM330nxS-23" value="" style="line;strokeWidth=1;fillColor=none;align=left;verticalAlign=middle;spacingTop=-1;spacingLeft=3;spacingRight=3;rotatable=0;labelPosition=right;points=[];portConstraint=eastwest;" parent="ATjMgSl7CKRhAM330nxS-21" vertex="1">
                    <mxGeometry y="52" width="160" height="8" as="geometry"/>
                </mxCell>
                <mxCell id="ATjMgSl7CKRhAM330nxS-24" value="+ method(type): type" style="text;strokeColor=none;fillColor=none;align=left;verticalAlign=top;spacingLeft=4;spacingRight=4;overflow=hidden;rotatable=0;points=[[0,0.5],[1,0.5]];portConstraint=eastwest;" parent="ATjMgSl7CKRhAM330nxS-21" vertex="1">
                    <mxGeometry y="60" width="160" height="26" as="geometry"/>
                </mxCell>
                <mxCell id="_cMe3MFEp8gVOyKmYmJi-1" value="Task" style="swimlane;fontStyle=1;align=center;verticalAlign=top;childLayout=stackLayout;horizontal=1;startSize=26;horizontalStack=0;resizeParent=1;resizeParentMax=0;resizeLast=0;collapsible=1;marginBottom=0;" parent="1" vertex="1">
                    <mxGeometry x="550" y="300" width="160" height="86" as="geometry"/>
                </mxCell>
                <mxCell id="_cMe3MFEp8gVOyKmYmJi-2" value="+ field: type" style="text;strokeColor=none;fillColor=none;align=left;verticalAlign=top;spacingLeft=4;spacingRight=4;overflow=hidden;rotatable=0;points=[[0,0.5],[1,0.5]];portConstraint=eastwest;" parent="_cMe3MFEp8gVOyKmYmJi-1" vertex="1">
                    <mxGeometry y="26" width="160" height="26" as="geometry"/>
                </mxCell>
                <mxCell id="_cMe3MFEp8gVOyKmYmJi-3" value="" style="line;strokeWidth=1;fillColor=none;align=left;verticalAlign=middle;spacingTop=-1;spacingLeft=3;spacingRight=3;rotatable=0;labelPosition=right;points=[];portConstraint=eastwest;" parent="_cMe3MFEp8gVOyKmYmJi-1" vertex="1">
                    <mxGeometry y="52" width="160" height="8" as="geometry"/>
                </mxCell>
                <mxCell id="_cMe3MFEp8gVOyKmYmJi-4" value="+ method(type): type" style="text;strokeColor=none;fillColor=none;align=left;verticalAlign=top;spacingLeft=4;spacingRight=4;overflow=hidden;rotatable=0;points=[[0,0.5],[1,0.5]];portConstraint=eastwest;" parent="_cMe3MFEp8gVOyKmYmJi-1" vertex="1">
                    <mxGeometry y="60" width="160" height="26" as="geometry"/>
                </mxCell>
                <mxCell id="ugqwEBwFSIM_-5ZymSAO-1" value="TaskExecutor" style="swimlane;fontStyle=1;align=center;verticalAlign=top;childLayout=stackLayout;horizontal=1;startSize=26;horizontalStack=0;resizeParent=1;resizeParentMax=0;resizeLast=0;collapsible=1;marginBottom=0;" parent="1" vertex="1">
                    <mxGeometry x="810" y="300" width="160" height="86" as="geometry"/>
                </mxCell>
                <mxCell id="ugqwEBwFSIM_-5ZymSAO-2" value="+ field: type" style="text;strokeColor=none;fillColor=none;align=left;verticalAlign=top;spacingLeft=4;spacingRight=4;overflow=hidden;rotatable=0;points=[[0,0.5],[1,0.5]];portConstraint=eastwest;" parent="ugqwEBwFSIM_-5ZymSAO-1" vertex="1">
                    <mxGeometry y="26" width="160" height="26" as="geometry"/>
                </mxCell>
                <mxCell id="ugqwEBwFSIM_-5ZymSAO-3" value="" style="line;strokeWidth=1;fillColor=none;align=left;verticalAlign=middle;spacingTop=-1;spacingLeft=3;spacingRight=3;rotatable=0;labelPosition=right;points=[];portConstraint=eastwest;" parent="ugqwEBwFSIM_-5ZymSAO-1" vertex="1">
                    <mxGeometry y="52" width="160" height="8" as="geometry"/>
                </mxCell>
                <mxCell id="ugqwEBwFSIM_-5ZymSAO-4" value="+ method(type): type" style="text;strokeColor=none;fillColor=none;align=left;verticalAlign=top;spacingLeft=4;spacingRight=4;overflow=hidden;rotatable=0;points=[[0,0.5],[1,0.5]];portConstraint=eastwest;" parent="ugqwEBwFSIM_-5ZymSAO-1" vertex="1">
                    <mxGeometry y="60" width="160" height="26" as="geometry"/>
                </mxCell>
                <mxCell id="9lTyJejQeK8AJ04qK45E-1" value="TaskQueue" style="swimlane;fontStyle=1;align=center;verticalAlign=top;childLayout=stackLayout;horizontal=1;startSize=26;horizontalStack=0;resizeParent=1;resizeParentMax=0;resizeLast=0;collapsible=1;marginBottom=0;" parent="1" vertex="1">
                    <mxGeometry x="860" y="120" width="160" height="86" as="geometry"/>
                </mxCell>
                <mxCell id="9lTyJejQeK8AJ04qK45E-2" value="+ field: type" style="text;strokeColor=none;fillColor=none;align=left;verticalAlign=top;spacingLeft=4;spacingRight=4;overflow=hidden;rotatable=0;points=[[0,0.5],[1,0.5]];portConstraint=eastwest;" parent="9lTyJejQeK8AJ04qK45E-1" vertex="1">
                    <mxGeometry y="26" width="160" height="26" as="geometry"/>
                </mxCell>
                <mxCell id="9lTyJejQeK8AJ04qK45E-3" value="" style="line;strokeWidth=1;fillColor=none;align=left;verticalAlign=middle;spacingTop=-1;spacingLeft=3;spacingRight=3;rotatable=0;labelPosition=right;points=[];portConstraint=eastwest;" parent="9lTyJejQeK8AJ04qK45E-1" vertex="1">
                    <mxGeometry y="52" width="160" height="8" as="geometry"/>
                </mxCell>
                <mxCell id="9lTyJejQeK8AJ04qK45E-4" value="+ method(type): type" style="text;strokeColor=none;fillColor=none;align=left;verticalAlign=top;spacingLeft=4;spacingRight=4;overflow=hidden;rotatable=0;points=[[0,0.5],[1,0.5]];portConstraint=eastwest;" parent="9lTyJejQeK8AJ04qK45E-1" vertex="1">
                    <mxGeometry y="60" width="160" height="26" as="geometry"/>
                </mxCell>
                <mxCell id="3ZwL82qOPOroCKGM12Bo-1" value="&amp;laquo;interface&amp;raquo;&lt;br&gt;&lt;b&gt;Name&lt;/b&gt;" style="html=1;" parent="1" vertex="1">
                    <mxGeometry x="620" y="560" width="110" height="50" as="geometry"/>
                </mxCell>
                <mxCell id="IQ-oMB5FCMT-QfhxR2nf-2" value="TaskRunner" style="swimlane;fontStyle=1;align=center;verticalAlign=top;childLayout=stackLayout;horizontal=1;startSize=26;horizontalStack=0;resizeParent=1;resizeParentMax=0;resizeLast=0;collapsible=1;marginBottom=0;" parent="1" vertex="1">
                    <mxGeometry x="560" y="670" width="160" height="86" as="geometry"/>
                </mxCell>
                <mxCell id="IQ-oMB5FCMT-QfhxR2nf-3" value="+ field: type" style="text;strokeColor=none;fillColor=none;align=left;verticalAlign=top;spacingLeft=4;spacingRight=4;overflow=hidden;rotatable=0;points=[[0,0.5],[1,0.5]];portConstraint=eastwest;" parent="IQ-oMB5FCMT-QfhxR2nf-2" vertex="1">
                    <mxGeometry y="26" width="160" height="26" as="geometry"/>
                </mxCell>
                <mxCell id="IQ-oMB5FCMT-QfhxR2nf-4" value="" style="line;strokeWidth=1;fillColor=none;align=left;verticalAlign=middle;spacingTop=-1;spacingLeft=3;spacingRight=3;rotatable=0;labelPosition=right;points=[];portConstraint=eastwest;" parent="IQ-oMB5FCMT-QfhxR2nf-2" vertex="1">
                    <mxGeometry y="52" width="160" height="8" as="geometry"/>
                </mxCell>
                <mxCell id="IQ-oMB5FCMT-QfhxR2nf-5" value="+ method(type): type" style="text;strokeColor=none;fillColor=none;align=left;verticalAlign=top;spacingLeft=4;spacingRight=4;overflow=hidden;rotatable=0;points=[[0,0.5],[1,0.5]];portConstraint=eastwest;" parent="IQ-oMB5FCMT-QfhxR2nf-2" vertex="1">
                    <mxGeometry y="60" width="160" height="26" as="geometry"/>
                </mxCell>
                <mxCell id="IQ-oMB5FCMT-QfhxR2nf-14" style="edgeStyle=orthogonalEdgeStyle;rounded=0;orthogonalLoop=1;jettySize=auto;html=1;entryX=0.506;entryY=1.008;entryDx=0;entryDy=0;entryPerimeter=0;" parent="1" source="IQ-oMB5FCMT-QfhxR2nf-6" target="ATjMgSl7CKRhAM330nxS-24" edge="1">
                    <mxGeometry relative="1" as="geometry"/>
                </mxCell>
                <mxCell id="IQ-oMB5FCMT-QfhxR2nf-15" style="edgeStyle=orthogonalEdgeStyle;rounded=0;orthogonalLoop=1;jettySize=auto;html=1;entryX=0.506;entryY=1.008;entryDx=0;entryDy=0;entryPerimeter=0;" parent="1" source="IQ-oMB5FCMT-QfhxR2nf-6" target="IQ-oMB5FCMT-QfhxR2nf-5" edge="1">
                    <mxGeometry relative="1" as="geometry"/>
                </mxCell>
                <mxCell id="IQ-oMB5FCMT-QfhxR2nf-6" value="SequencedTaskRunner" style="swimlane;fontStyle=1;align=center;verticalAlign=top;childLayout=stackLayout;horizontal=1;startSize=26;horizontalStack=0;resizeParent=1;resizeParentMax=0;resizeLast=0;collapsible=1;marginBottom=0;" parent="1" vertex="1">
                    <mxGeometry x="334" y="830" width="160" height="86" as="geometry"/>
                </mxCell>
                <mxCell id="IQ-oMB5FCMT-QfhxR2nf-7" value="+ field: type" style="text;strokeColor=none;fillColor=none;align=left;verticalAlign=top;spacingLeft=4;spacingRight=4;overflow=hidden;rotatable=0;points=[[0,0.5],[1,0.5]];portConstraint=eastwest;" parent="IQ-oMB5FCMT-QfhxR2nf-6" vertex="1">
                    <mxGeometry y="26" width="160" height="26" as="geometry"/>
                </mxCell>
                <mxCell id="IQ-oMB5FCMT-QfhxR2nf-8" value="" style="line;strokeWidth=1;fillColor=none;align=left;verticalAlign=middle;spacingTop=-1;spacingLeft=3;spacingRight=3;rotatable=0;labelPosition=right;points=[];portConstraint=eastwest;" parent="IQ-oMB5FCMT-QfhxR2nf-6" vertex="1">
                    <mxGeometry y="52" width="160" height="8" as="geometry"/>
                </mxCell>
                <mxCell id="IQ-oMB5FCMT-QfhxR2nf-9" value="+ method(type): type" style="text;strokeColor=none;fillColor=none;align=left;verticalAlign=top;spacingLeft=4;spacingRight=4;overflow=hidden;rotatable=0;points=[[0,0.5],[1,0.5]];portConstraint=eastwest;" parent="IQ-oMB5FCMT-QfhxR2nf-6" vertex="1">
                    <mxGeometry y="60" width="160" height="26" as="geometry"/>
                </mxCell>
                <mxCell id="IQ-oMB5FCMT-QfhxR2nf-16" style="edgeStyle=orthogonalEdgeStyle;rounded=0;orthogonalLoop=1;jettySize=auto;html=1;" parent="1" source="IQ-oMB5FCMT-QfhxR2nf-10" edge="1">
                    <mxGeometry relative="1" as="geometry">
                        <mxPoint x="640" y="760" as="targetPoint"/>
                    </mxGeometry>
                </mxCell>
                <mxCell id="IQ-oMB5FCMT-QfhxR2nf-17" style="edgeStyle=orthogonalEdgeStyle;rounded=0;orthogonalLoop=1;jettySize=auto;html=1;entryX=0.513;entryY=1.008;entryDx=0;entryDy=0;entryPerimeter=0;" parent="1" source="IQ-oMB5FCMT-QfhxR2nf-10" target="ATjMgSl7CKRhAM330nxS-24" edge="1">
                    <mxGeometry relative="1" as="geometry"/>
                </mxCell>
                <mxCell id="IQ-oMB5FCMT-QfhxR2nf-10" value="concurrentTaskRunner" style="swimlane;fontStyle=1;align=center;verticalAlign=top;childLayout=stackLayout;horizontal=1;startSize=26;horizontalStack=0;resizeParent=1;resizeParentMax=0;resizeLast=0;collapsible=1;marginBottom=0;" parent="1" vertex="1">
                    <mxGeometry x="570" y="830" width="160" height="86" as="geometry"/>
                </mxCell>
                <mxCell id="IQ-oMB5FCMT-QfhxR2nf-11" value="+ field: type" style="text;strokeColor=none;fillColor=none;align=left;verticalAlign=top;spacingLeft=4;spacingRight=4;overflow=hidden;rotatable=0;points=[[0,0.5],[1,0.5]];portConstraint=eastwest;" parent="IQ-oMB5FCMT-QfhxR2nf-10" vertex="1">
                    <mxGeometry y="26" width="160" height="26" as="geometry"/>
                </mxCell>
                <mxCell id="IQ-oMB5FCMT-QfhxR2nf-12" value="" style="line;strokeWidth=1;fillColor=none;align=left;verticalAlign=middle;spacingTop=-1;spacingLeft=3;spacingRight=3;rotatable=0;labelPosition=right;points=[];portConstraint=eastwest;" parent="IQ-oMB5FCMT-QfhxR2nf-10" vertex="1">
                    <mxGeometry y="52" width="160" height="8" as="geometry"/>
                </mxCell>
                <mxCell id="IQ-oMB5FCMT-QfhxR2nf-13" value="+ method(type): type" style="text;strokeColor=none;fillColor=none;align=left;verticalAlign=top;spacingLeft=4;spacingRight=4;overflow=hidden;rotatable=0;points=[[0,0.5],[1,0.5]];portConstraint=eastwest;" parent="IQ-oMB5FCMT-QfhxR2nf-10" vertex="1">
                    <mxGeometry y="60" width="160" height="26" as="geometry"/>
                </mxCell>
            </root>
        </mxGraphModel>
    </diagram>
    <diagram id="6jQgNcE04YqI3veF0PAp" name="arch">
        <mxGraphModel dx="346" dy="859" grid="1" gridSize="10" guides="1" tooltips="1" connect="1" arrows="1" fold="1" page="1" pageScale="1" pageWidth="827" pageHeight="1169" math="0" shadow="0">
            <root>
                <mxCell id="wYI4s5fphJEQgXXBXima-0"/>
                <mxCell id="wYI4s5fphJEQgXXBXima-1" parent="wYI4s5fphJEQgXXBXima-0"/>
                <mxCell id="7" value="" style="rounded=0;whiteSpace=wrap;html=1;" parent="wYI4s5fphJEQgXXBXima-1" vertex="1">
                    <mxGeometry x="770" y="890" width="330" height="110" as="geometry"/>
                </mxCell>
                <mxCell id="6" value="" style="rounded=0;whiteSpace=wrap;html=1;" parent="wYI4s5fphJEQgXXBXima-1" vertex="1">
                    <mxGeometry x="770" y="770" width="330" height="110" as="geometry"/>
                </mxCell>
                <mxCell id="5" value="" style="rounded=0;whiteSpace=wrap;html=1;" parent="wYI4s5fphJEQgXXBXima-1" vertex="1">
                    <mxGeometry x="750" y="605" width="330" height="110" as="geometry"/>
                </mxCell>
                <mxCell id="4" value="" style="rounded=0;whiteSpace=wrap;html=1;" parent="wYI4s5fphJEQgXXBXima-1" vertex="1">
                    <mxGeometry x="745" y="425" width="330" height="110" as="geometry"/>
                </mxCell>
                <mxCell id="x77UgyO5aJxHUbcrrbHu-0" value="Sequence Task Runner" style="rounded=0;whiteSpace=wrap;html=1;" parent="wYI4s5fphJEQgXXBXima-1" vertex="1">
                    <mxGeometry x="530" y="610" width="190" height="100" as="geometry"/>
                </mxCell>
                <mxCell id="qAM8c2XMUC8xzGMEM32C-1" value="Running" style="rounded=0;whiteSpace=wrap;html=1;" parent="wYI4s5fphJEQgXXBXima-1" vertex="1">
                    <mxGeometry x="70" y="540" width="400" height="230" as="geometry"/>
                </mxCell>
                <mxCell id="qAM8c2XMUC8xzGMEM32C-3" value="task_manager" style="rounded=0;whiteSpace=wrap;html=1;" parent="wYI4s5fphJEQgXXBXima-1" vertex="1">
                    <mxGeometry x="350" y="620" width="120" height="80" as="geometry"/>
                </mxCell>
                <mxCell id="qAM8c2XMUC8xzGMEM32C-6" value="task" style="rounded=0;whiteSpace=wrap;html=1;" parent="wYI4s5fphJEQgXXBXima-1" vertex="1">
                    <mxGeometry x="930" y="630" width="120" height="60" as="geometry"/>
                </mxCell>
                <mxCell id="qAM8c2XMUC8xzGMEM32C-8" value="task_executor" style="rounded=0;whiteSpace=wrap;html=1;" parent="wYI4s5fphJEQgXXBXima-1" vertex="1">
                    <mxGeometry x="770" y="630" width="120" height="60" as="geometry"/>
                </mxCell>
                <mxCell id="qAM8c2XMUC8xzGMEM32C-10" value="task_queue" style="rounded=0;whiteSpace=wrap;html=1;" parent="wYI4s5fphJEQgXXBXima-1" vertex="1">
                    <mxGeometry x="645" y="680" width="75" height="30" as="geometry"/>
                </mxCell>
                <mxCell id="qAM8c2XMUC8xzGMEM32C-11" value="RunLoop" style="rounded=0;whiteSpace=wrap;html=1;" parent="wYI4s5fphJEQgXXBXima-1" vertex="1">
                    <mxGeometry x="110" y="1540" width="1120" height="90" as="geometry"/>
                </mxCell>
                <mxCell id="qAM8c2XMUC8xzGMEM32C-13" value="Thread Pool" style="rounded=0;whiteSpace=wrap;html=1;" parent="wYI4s5fphJEQgXXBXima-1" vertex="1">
                    <mxGeometry x="110" y="1450" width="840" height="90" as="geometry"/>
                </mxCell>
                <mxCell id="qAM8c2XMUC8xzGMEM32C-14" value="Worker Thread" style="rounded=0;whiteSpace=wrap;html=1;" parent="wYI4s5fphJEQgXXBXima-1" vertex="1">
                    <mxGeometry x="110" y="1360" width="460" height="90" as="geometry"/>
                </mxCell>
                <mxCell id="qAM8c2XMUC8xzGMEM32C-18" value="Worker Thread" style="rounded=0;whiteSpace=wrap;html=1;" parent="wYI4s5fphJEQgXXBXima-1" vertex="1">
                    <mxGeometry x="590" y="1360" width="150" height="90" as="geometry"/>
                </mxCell>
                <mxCell id="qAM8c2XMUC8xzGMEM32C-19" value="Worker Thread" style="rounded=0;whiteSpace=wrap;html=1;" parent="wYI4s5fphJEQgXXBXima-1" vertex="1">
                    <mxGeometry x="760" y="1360" width="150" height="90" as="geometry"/>
                </mxCell>
                <mxCell id="x77UgyO5aJxHUbcrrbHu-1" value="Concurrent Task Runner" style="rounded=0;whiteSpace=wrap;html=1;" parent="wYI4s5fphJEQgXXBXima-1" vertex="1">
                    <mxGeometry x="530" y="830" width="190" height="100" as="geometry"/>
                </mxCell>
                <mxCell id="x77UgyO5aJxHUbcrrbHu-2" value="task_queue" style="rounded=0;whiteSpace=wrap;html=1;" parent="wYI4s5fphJEQgXXBXima-1" vertex="1">
                    <mxGeometry x="640" y="900" width="75" height="30" as="geometry"/>
                </mxCell>
                <mxCell id="x77UgyO5aJxHUbcrrbHu-3" value="thread_pool" style="rounded=0;whiteSpace=wrap;html=1;" parent="wYI4s5fphJEQgXXBXima-1" vertex="1">
                    <mxGeometry x="560" y="900" width="75" height="30" as="geometry"/>
                </mxCell>
                <mxCell id="x77UgyO5aJxHUbcrrbHu-4" value="task" style="rounded=0;whiteSpace=wrap;html=1;" parent="wYI4s5fphJEQgXXBXima-1" vertex="1">
                    <mxGeometry x="960" y="800" width="120" height="60" as="geometry"/>
                </mxCell>
                <mxCell id="x77UgyO5aJxHUbcrrbHu-5" value="task" style="rounded=0;whiteSpace=wrap;html=1;" parent="wYI4s5fphJEQgXXBXima-1" vertex="1">
                    <mxGeometry x="945" y="920" width="120" height="60" as="geometry"/>
                </mxCell>
                <mxCell id="_JBLeshWzVw6lQeyVbOc-0" value="task_executor" style="rounded=0;whiteSpace=wrap;html=1;" parent="wYI4s5fphJEQgXXBXima-1" vertex="1">
                    <mxGeometry x="800" y="800" width="120" height="60" as="geometry"/>
                </mxCell>
                <mxCell id="_JBLeshWzVw6lQeyVbOc-1" value="task_executor" style="rounded=0;whiteSpace=wrap;html=1;" parent="wYI4s5fphJEQgXXBXima-1" vertex="1">
                    <mxGeometry x="785" y="920" width="120" height="60" as="geometry"/>
                </mxCell>
                <mxCell id="_JBLeshWzVw6lQeyVbOc-2" value="Sequence Task Runner" style="rounded=0;whiteSpace=wrap;html=1;" parent="wYI4s5fphJEQgXXBXima-1" vertex="1">
                    <mxGeometry x="520" y="430" width="190" height="100" as="geometry"/>
                </mxCell>
                <mxCell id="_JBLeshWzVw6lQeyVbOc-3" value="task" style="rounded=0;whiteSpace=wrap;html=1;" parent="wYI4s5fphJEQgXXBXima-1" vertex="1">
                    <mxGeometry x="930" y="450" width="120" height="60" as="geometry"/>
                </mxCell>
                <mxCell id="_JBLeshWzVw6lQeyVbOc-4" value="task_executor" style="rounded=0;whiteSpace=wrap;html=1;" parent="wYI4s5fphJEQgXXBXima-1" vertex="1">
                    <mxGeometry x="770" y="450" width="120" height="60" as="geometry"/>
                </mxCell>
                <mxCell id="_JBLeshWzVw6lQeyVbOc-5" value="task_queue" style="rounded=0;whiteSpace=wrap;html=1;" parent="wYI4s5fphJEQgXXBXima-1" vertex="1">
                    <mxGeometry x="635" y="500" width="75" height="30" as="geometry"/>
                </mxCell>
                <mxCell id="hLU_JYroyX9KfzdAzyev-10" value="dispatcher" style="rounded=0;whiteSpace=wrap;html=1;" vertex="1" parent="wYI4s5fphJEQgXXBXima-1">
                    <mxGeometry x="635" y="430" width="75" height="30" as="geometry"/>
                </mxCell>
                <mxCell id="hLU_JYroyX9KfzdAzyev-11" value="dispatcher" style="rounded=0;whiteSpace=wrap;html=1;" vertex="1" parent="wYI4s5fphJEQgXXBXima-1">
                    <mxGeometry x="640" y="610" width="75" height="30" as="geometry"/>
                </mxCell>
                <mxCell id="hLU_JYroyX9KfzdAzyev-12" value="dispatcher" style="rounded=0;whiteSpace=wrap;html=1;" vertex="1" parent="wYI4s5fphJEQgXXBXima-1">
                    <mxGeometry x="640" y="830" width="75" height="30" as="geometry"/>
                </mxCell>
            </root>
        </mxGraphModel>
    </diagram>
</mxfile>